<svg xmlns="http://www.w3.org/2000/svg" width="31" height="30" viewBox="0 0 31 30" fill="none">
<rect x="0.580078" width="30" height="30" rx="15" fill="#E64B50" fill-opacity="0.1"/>
<path d="M9.58008 11H10.9134H21.5801" stroke="#E64B50" stroke-width="1.33333"/>
<path d="M20.2464 11V20.3334C20.2464 20.687 20.1059 21.0261 19.8559 21.2762C19.6058 21.5262 19.2667 21.6667 18.9131 21.6667H12.2464C11.8928 21.6667 11.5537 21.5262 11.3036 21.2762C11.0536 21.0261 10.9131 20.687 10.9131 20.3334V11M12.9131 11V9.66671C12.9131 9.31309 13.0536 8.97395 13.3036 8.7239C13.5537 8.47385 13.8928 8.33337 14.2464 8.33337H16.9131C17.2667 8.33337 17.6058 8.47385 17.8559 8.7239C18.1059 8.97395 18.2464 9.31309 18.2464 9.66671V11" stroke="#E64B50" stroke-width="1.33333"/>
<path d="M14.2471 14.3333V18.3333" stroke="#E64B50" stroke-width="1.33333"/>
<path d="M16.9131 14.3333V18.3333" stroke="#E64B50" stroke-width="1.33333"/>
</svg>