<svg width="31" height="30" viewBox="0 0 31 30" fill="none" xmlns="http://www.w3.org/2000/svg">
<rect x="0.580078" width="30" height="30" rx="15" fill="#2A5CAA" fill-opacity="0.1"/>
<path d="M14.9131 9.66663H10.2464C9.8928 9.66663 9.55366 9.8071 9.30361 10.0572C9.05356 10.3072 8.91309 10.6463 8.91309 11V20.3333C8.91309 20.6869 9.05356 21.0261 9.30361 21.2761C9.55366 21.5262 9.8928 21.6666 10.2464 21.6666H19.5798C19.9334 21.6666 20.2725 21.5262 20.5226 21.2761C20.7726 21.0261 20.9131 20.6869 20.9131 20.3333V15.6666" stroke="#2A5CAA" stroke-width="1.33333"/>
<path d="M19.9131 8.66665C20.1783 8.40144 20.538 8.25244 20.9131 8.25244C21.2882 8.25244 21.6479 8.40144 21.9131 8.66665C22.1783 8.93187 22.3273 9.29158 22.3273 9.66665C22.3273 10.0417 22.1783 10.4014 21.9131 10.6667L15.5798 17L12.9131 17.6667L13.5798 15L19.9131 8.66665Z" stroke="#2A5CAA" stroke-width="1.33333"/>
</svg>
