<svg width="18" height="18" viewBox="0 0 18 18" fill="none" xmlns="http://www.w3.org/2000/svg">
<mask id="path-1-inside-1_196_978" fill="white">
<path d="M0 4C0 1.79086 1.79086 0 4 0H14C16.2091 0 18 1.79086 18 4V14C18 16.2091 16.2091 18 14 18H4C1.79086 18 0 16.2091 0 14V4Z"/>
</mask>
<path d="M0 4C0 1.79086 1.79086 0 4 0H14C16.2091 0 18 1.79086 18 4V14C18 16.2091 16.2091 18 14 18H4C1.79086 18 0 16.2091 0 14V4Z" fill="white"/>
<path d="M4 2H14V-2H4V2ZM16 4V14H20V4H16ZM14 16H4V20H14V16ZM2 14V4H-2V14H2ZM4 16C2.89543 16 2 15.1046 2 14H-2C-2 17.3137 0.686291 20 4 20V16ZM16 14C16 15.1046 15.1046 16 14 16V20C17.3137 20 20 17.3137 20 14H16ZM14 2C15.1046 2 16 2.89543 16 4H20C20 0.686292 17.3137 -2 14 -2V2ZM4 -2C0.686292 -2 -2 0.686291 -2 4H2C2 2.89543 2.89543 2 4 2V-2Z" fill="#CBD5E0" mask="url(#path-1-inside-1_196_978)"/>
</svg>
