<svg xmlns="http://www.w3.org/2000/svg" width="154" height="36" viewBox="0 0 154 36" fill="none">
<rect y="2" width="32" height="32" rx="16" fill="#2A5CAA"/>
<path d="M12.3198 26C11.7918 26 11.3838 25.864 11.0958 25.592C10.8238 25.304 10.6878 24.896 10.6878 24.368V10.712C10.6878 10.184 10.8238 9.784 11.0958 9.512C11.3838 9.224 11.7918 9.08 12.3198 9.08H20.8878C21.2878 9.08 21.5918 9.184 21.7998 9.392C22.0238 9.6 22.1358 9.896 22.1358 10.28C22.1358 10.68 22.0238 10.992 21.7998 11.216C21.5918 11.424 21.2878 11.528 20.8878 11.528H13.6398V16.184H20.3598C20.7758 16.184 21.0878 16.288 21.2958 16.496C21.5038 16.704 21.6078 17.008 21.6078 17.408C21.6078 17.808 21.5038 18.112 21.2958 18.32C21.0878 18.528 20.7758 18.632 20.3598 18.632H13.6398V23.552H20.8878C21.2878 23.552 21.5918 23.656 21.7998 23.864C22.0238 24.072 22.1358 24.376 22.1358 24.776C22.1358 25.176 22.0238 25.48 21.7998 25.688C21.5918 25.896 21.2878 26 20.8878 26H12.3198Z" fill="white"/>
<path d="M43.48 26C42.952 26 42.544 25.864 42.256 25.592C41.984 25.304 41.848 24.896 41.848 24.368V10.712C41.848 10.184 41.984 9.784 42.256 9.512C42.544 9.224 42.952 9.08 43.48 9.08H52.048C52.448 9.08 52.752 9.184 52.96 9.392C53.184 9.6 53.296 9.896 53.296 10.28C53.296 10.68 53.184 10.992 52.96 11.216C52.752 11.424 52.448 11.528 52.048 11.528H44.8V16.184H51.52C51.936 16.184 52.248 16.288 52.456 16.496C52.664 16.704 52.768 17.008 52.768 17.408C52.768 17.808 52.664 18.112 52.456 18.32C52.248 18.528 51.936 18.632 51.52 18.632H44.8V23.552H52.048C52.448 23.552 52.752 23.656 52.96 23.864C53.184 24.072 53.296 24.376 53.296 24.776C53.296 25.176 53.184 25.48 52.96 25.688C52.752 25.896 52.448 26 52.048 26H43.48ZM60.322 26.24C59.298 26.24 58.394 25.992 57.61 25.496C56.842 25 56.242 24.296 55.81 23.384C55.378 22.456 55.162 21.368 55.162 20.12C55.162 18.856 55.378 17.776 55.81 16.88C56.242 15.968 56.842 15.264 57.61 14.768C58.394 14.272 59.298 14.024 60.322 14.024C61.298 14.024 62.146 14.264 62.866 14.744C63.602 15.224 64.098 15.856 64.354 16.64H64.09V10.4C64.09 9.904 64.218 9.528 64.474 9.272C64.73 9.016 65.098 8.888 65.578 8.888C66.058 8.888 66.426 9.016 66.682 9.272C66.954 9.528 67.09 9.904 67.09 10.4V24.656C67.09 25.152 66.962 25.536 66.706 25.808C66.45 26.064 66.082 26.192 65.602 26.192C65.122 26.192 64.754 26.064 64.498 25.808C64.242 25.536 64.114 25.152 64.114 24.656V22.784L64.378 23.504C64.138 24.336 63.65 25 62.914 25.496C62.178 25.992 61.314 26.24 60.322 26.24ZM61.162 23.96C61.754 23.96 62.274 23.816 62.722 23.528C63.17 23.24 63.514 22.816 63.754 22.256C64.01 21.68 64.138 20.968 64.138 20.12C64.138 18.84 63.866 17.888 63.322 17.264C62.778 16.624 62.058 16.304 61.162 16.304C60.57 16.304 60.05 16.448 59.602 16.736C59.154 17.008 58.802 17.432 58.546 18.008C58.306 18.568 58.186 19.272 58.186 20.12C58.186 21.384 58.458 22.344 59.002 23C59.546 23.64 60.266 23.96 61.162 23.96ZM74.4486 26.24C73.4726 26.24 72.6646 26.064 72.0246 25.712C71.3846 25.344 70.9046 24.8 70.5846 24.08C70.2806 23.36 70.1286 22.464 70.1286 21.392V15.584C70.1286 15.072 70.2566 14.696 70.5126 14.456C70.7686 14.2 71.1366 14.072 71.6166 14.072C72.0966 14.072 72.4646 14.2 72.7206 14.456C72.9926 14.696 73.1286 15.072 73.1286 15.584V21.44C73.1286 22.272 73.2966 22.888 73.6326 23.288C73.9686 23.688 74.5046 23.888 75.2406 23.888C76.0406 23.888 76.6966 23.616 77.2086 23.072C77.7206 22.512 77.9766 21.776 77.9766 20.864V15.584C77.9766 15.072 78.1046 14.696 78.3606 14.456C78.6166 14.2 78.9846 14.072 79.4646 14.072C79.9446 14.072 80.3126 14.2 80.5686 14.456C80.8406 14.696 80.9766 15.072 80.9766 15.584V24.656C80.9766 25.68 80.4886 26.192 79.5126 26.192C79.0486 26.192 78.6886 26.064 78.4326 25.808C78.1766 25.536 78.0486 25.152 78.0486 24.656V22.832L78.3846 23.552C78.0486 24.416 77.5366 25.08 76.8486 25.544C76.1766 26.008 75.3766 26.24 74.4486 26.24ZM85.9231 26.192C85.4271 26.192 85.0431 26.056 84.7711 25.784C84.5151 25.496 84.3871 25.104 84.3871 24.608V10.472C84.3871 9.96 84.5151 9.568 84.7711 9.296C85.0431 9.024 85.4271 8.888 85.9231 8.888C86.4191 8.888 86.7951 9.024 87.0511 9.296C87.3231 9.568 87.4591 9.96 87.4591 10.472V16.136H96.1711V10.472C96.1711 9.96 96.2991 9.568 96.5551 9.296C96.8271 9.024 97.2111 8.888 97.7071 8.888C98.2031 8.888 98.5791 9.024 98.8351 9.296C99.1071 9.568 99.2431 9.96 99.2431 10.472V24.608C99.2431 25.104 99.1071 25.496 98.8351 25.784C98.5791 26.056 98.2031 26.192 97.7071 26.192C97.2111 26.192 96.8271 26.056 96.5551 25.784C96.2991 25.496 96.1711 25.104 96.1711 24.608V18.704H87.4591V24.608C87.4591 25.104 87.3311 25.496 87.0751 25.784C86.8191 26.056 86.4351 26.192 85.9231 26.192ZM106.526 26.24C105.678 26.24 104.918 26.08 104.246 25.76C103.59 25.424 103.07 24.976 102.686 24.416C102.318 23.856 102.134 23.224 102.134 22.52C102.134 21.656 102.358 20.976 102.806 20.48C103.254 19.968 103.982 19.6 104.99 19.376C105.998 19.152 107.35 19.04 109.046 19.04H110.246V20.768H109.07C108.078 20.768 107.286 20.816 106.694 20.912C106.102 21.008 105.678 21.176 105.422 21.416C105.182 21.64 105.062 21.96 105.062 22.376C105.062 22.904 105.246 23.336 105.614 23.672C105.982 24.008 106.494 24.176 107.15 24.176C107.678 24.176 108.142 24.056 108.542 23.816C108.958 23.56 109.286 23.216 109.526 22.784C109.766 22.352 109.886 21.856 109.886 21.296V18.536C109.886 17.736 109.71 17.16 109.358 16.808C109.006 16.456 108.414 16.28 107.582 16.28C107.118 16.28 106.614 16.336 106.07 16.448C105.542 16.56 104.982 16.752 104.39 17.024C104.086 17.168 103.814 17.208 103.574 17.144C103.35 17.08 103.174 16.952 103.046 16.76C102.918 16.552 102.854 16.328 102.854 16.088C102.854 15.848 102.918 15.616 103.046 15.392C103.174 15.152 103.39 14.976 103.694 14.864C104.43 14.56 105.134 14.344 105.806 14.216C106.494 14.088 107.118 14.024 107.678 14.024C108.83 14.024 109.774 14.2 110.51 14.552C111.262 14.904 111.822 15.44 112.19 16.16C112.558 16.864 112.742 17.776 112.742 18.896V24.656C112.742 25.152 112.622 25.536 112.382 25.808C112.142 26.064 111.798 26.192 111.35 26.192C110.902 26.192 110.55 26.064 110.294 25.808C110.054 25.536 109.934 25.152 109.934 24.656V23.504H110.126C110.014 24.064 109.79 24.552 109.454 24.968C109.134 25.368 108.726 25.68 108.23 25.904C107.734 26.128 107.166 26.24 106.526 26.24ZM120.421 26.192C120.021 26.192 119.669 26.088 119.365 25.88C119.077 25.672 118.837 25.352 118.645 24.92L114.829 16.064C114.685 15.712 114.629 15.384 114.661 15.08C114.709 14.776 114.853 14.536 115.093 14.36C115.349 14.168 115.693 14.072 116.125 14.072C116.493 14.072 116.789 14.16 117.013 14.336C117.237 14.496 117.437 14.808 117.613 15.272L120.853 23.36H120.133L123.469 15.248C123.645 14.8 123.845 14.496 124.069 14.336C124.309 14.16 124.629 14.072 125.029 14.072C125.381 14.072 125.661 14.168 125.869 14.36C126.077 14.536 126.205 14.776 126.253 15.08C126.301 15.368 126.245 15.688 126.085 16.04L122.197 24.92C122.021 25.352 121.781 25.672 121.477 25.88C121.189 26.088 120.837 26.192 120.421 26.192ZM133.875 26.24C132.547 26.24 131.403 25.992 130.443 25.496C129.483 25 128.739 24.296 128.211 23.384C127.699 22.472 127.443 21.392 127.443 20.144C127.443 18.928 127.691 17.864 128.187 16.952C128.699 16.04 129.395 15.328 130.275 14.816C131.171 14.288 132.187 14.024 133.323 14.024C134.155 14.024 134.899 14.16 135.555 14.432C136.227 14.704 136.795 15.096 137.259 15.608C137.739 16.12 138.099 16.744 138.339 17.48C138.595 18.2 138.723 19.016 138.723 19.928C138.723 20.216 138.619 20.44 138.411 20.6C138.219 20.744 137.939 20.816 137.571 20.816H129.867V19.088H136.611L136.227 19.448C136.227 18.712 136.115 18.096 135.891 17.6C135.683 17.104 135.371 16.728 134.955 16.472C134.555 16.2 134.051 16.064 133.443 16.064C132.771 16.064 132.195 16.224 131.715 16.544C131.251 16.848 130.891 17.288 130.635 17.864C130.395 18.424 130.275 19.096 130.275 19.88V20.048C130.275 21.36 130.579 22.344 131.187 23C131.811 23.64 132.723 23.96 133.923 23.96C134.339 23.96 134.803 23.912 135.315 23.816C135.843 23.704 136.339 23.52 136.803 23.264C137.139 23.072 137.435 22.992 137.691 23.024C137.947 23.04 138.147 23.128 138.291 23.288C138.451 23.448 138.547 23.648 138.579 23.888C138.611 24.112 138.563 24.344 138.435 24.584C138.323 24.824 138.123 25.032 137.835 25.208C137.275 25.56 136.627 25.824 135.891 26C135.171 26.16 134.499 26.24 133.875 26.24ZM142.587 26.192C142.107 26.192 141.739 26.064 141.483 25.808C141.227 25.536 141.099 25.152 141.099 24.656V15.584C141.099 15.088 141.227 14.712 141.483 14.456C141.739 14.2 142.099 14.072 142.563 14.072C143.027 14.072 143.387 14.2 143.643 14.456C143.899 14.712 144.027 15.088 144.027 15.584V17.216L143.763 16.616C144.115 15.768 144.659 15.128 145.395 14.696C146.147 14.248 146.995 14.024 147.939 14.024C148.883 14.024 149.659 14.2 150.267 14.552C150.875 14.904 151.331 15.44 151.635 16.16C151.939 16.864 152.091 17.76 152.091 18.848V24.656C152.091 25.152 151.963 25.536 151.707 25.808C151.451 26.064 151.083 26.192 150.603 26.192C150.123 26.192 149.747 26.064 149.475 25.808C149.219 25.536 149.091 25.152 149.091 24.656V18.992C149.091 18.08 148.915 17.416 148.563 17C148.227 16.584 147.699 16.376 146.979 16.376C146.099 16.376 145.395 16.656 144.867 17.216C144.355 17.76 144.099 18.488 144.099 19.4V24.656C144.099 25.68 143.595 26.192 142.587 26.192Z" fill="#2A5CAA"/>
</svg>