<svg xmlns="http://www.w3.org/2000/svg" width="36" height="21" viewBox="0 0 36 21" fill="none">
<g clip-path="url(#clip0_56_1231)">
<path d="M14.1663 18.02V16.3534C14.1663 15.4693 13.8152 14.6215 13.19 13.9963C12.5649 13.3712 11.7171 13.02 10.833 13.02H4.16634C3.28229 13.02 2.43444 13.3712 1.80932 13.9963C1.1842 14.6215 0.833008 15.4693 0.833008 16.3534V18.02" stroke="#2A5CAA" stroke-width="1.66667"/>
<path d="M7.50033 9.68669C9.34127 9.68669 10.8337 8.1943 10.8337 6.35335C10.8337 4.5124 9.34127 3.02002 7.50033 3.02002C5.65938 3.02002 4.16699 4.5124 4.16699 6.35335C4.16699 8.1943 5.65938 9.68669 7.50033 9.68669Z" stroke="#2A5CAA" stroke-width="1.66667"/>
<path d="M19.167 18.02V16.3534C19.1664 15.6148 18.9206 14.8973 18.4681 14.3136C18.0156 13.7299 17.3821 13.313 16.667 13.1284" stroke="#2A5CAA" stroke-width="1.66667"/>
<path d="M13.333 3.1283C14.05 3.31188 14.6855 3.72888 15.1394 4.31355C15.5932 4.89823 15.8395 5.61732 15.8395 6.35746C15.8395 7.0976 15.5932 7.8167 15.1394 8.40137C14.6855 8.98604 14.05 9.40304 13.333 9.58663" stroke="#2A5CAA" stroke-width="1.66667"/>
</g>
<defs>
<clipPath id="clip0_56_1231">
<rect width="20" height="20" fill="white" transform="translate(0 0.52002)"/>
</clipPath>
</defs>
</svg>